# xmcd CD database file
#
# Track frame offsets:
#	150
#	22402
#	42355
#	62737
#	81297
#	108335
#	132617
#	153177
#	170910
#	192065
#
# Disc length: 3005 seconds
#
# Revision: 0
# Processed by: cddbd v1.5.1PL2 Copyright (c) Steve Scherf et al.
# Submitted via: CD2WAV32(JP) R3.22
#
DISCID=8c0bbb0a
DTITLE=BEREEVE - MOTION
DYEAR=1995
DGENRE=J-POP(J)
TTITLE0=MOTION
TTITLE1=Nobody Somebody
TTITLE2=Painful Rain
TTITLE3=眠れないJEALOUSY
TTITLE4=この素晴らしい世界で
TTITLE5=誰よりも眩しく
TTITLE6=嵐の夜乗り越えても
TTITLE7=Trust you,Trust your
TTITLE8=ONLY LOVE
TTITLE9=儚き日々たちへ
EXTD=
EXTT0=
EXTT1=
EXTT2=
EXTT3=
EXTT4=
EXTT5=
EXTT6=
EXTT7=
EXTT8=
EXTT9=
PLAYORDER=
